<?xml version="1.0" standalone="no"?><!DOCTYPE svg PUBLIC "-//W3C//DTD SVG 1.1//EN" "http://www.w3.org/Graphics/SVG/1.1/DTD/svg11.dtd"><svg t="1661390620723" class="icon" viewBox="0 0 1024 1024" version="1.1" xmlns="http://www.w3.org/2000/svg" p-id="8997" width="48" height="48" xmlns:xlink="http://www.w3.org/1999/xlink"><defs><style type="text/css">@font-face { font-family: feedback-iconfont; src: url("//at.alicdn.com/t/font_1031158_u69w8yhxdu.woff2?t=1630033759944") format("woff2"), url("//at.alicdn.com/t/font_1031158_u69w8yhxdu.woff?t=1630033759944") format("woff"), url("//at.alicdn.com/t/font_1031158_u69w8yhxdu.ttf?t=1630033759944") format("truetype"); }
</style></defs><path d="M512.32 884.928a23.296 23.296 0 0 1-23.296-23.296v-46.592H163.008C76.16 815.04 0 733.44 0 640.448V151.36C0 65.088 70.08 0 163.008 0h279.488C498.24 0 535.68 32.768 535.68 81.472v780.16a23.36 23.36 0 0 1-23.36 23.296zM163.008 46.592C95.552 46.592 46.592 90.688 46.592 151.424v489.088c0 67.008 55.488 128.064 116.416 128.064h326.08V81.472c0-31.552-32.576-34.88-46.592-34.88H163.008z" fill="#1296db" p-id="8998"></path><path d="M861.632 815.04H512.32a23.232 23.232 0 1 1 0-46.528h349.312c60.992 0 116.48-61.056 116.48-128.064V151.36c0-60.736-49.024-104.832-116.48-104.832H582.208c-14.016 0-46.592 3.392-46.592 34.88v360.96a23.232 23.232 0 1 1-46.528 0.064v-360.96C489.088 32.768 526.528 0 582.208 0h279.424c92.992 0 163.072 65.088 163.072 151.36v489.088c0 92.992-76.224 174.592-163.072 174.592z" fill="#1296db" p-id="8999"></path></svg>