<?xml version="1.0" standalone="no"?><!DOCTYPE svg PUBLIC "-//W3C//DTD SVG 1.1//EN" "http://www.w3.org/Graphics/SVG/1.1/DTD/svg11.dtd"><svg t="1661391278164" class="icon" viewBox="0 0 1024 1024" version="1.1" xmlns="http://www.w3.org/2000/svg" p-id="10148" xmlns:xlink="http://www.w3.org/1999/xlink" width="48" height="48"><defs><style type="text/css">@font-face { font-family: feedback-iconfont; src: url("//at.alicdn.com/t/font_1031158_u69w8yhxdu.woff2?t=1630033759944") format("woff2"), url("//at.alicdn.com/t/font_1031158_u69w8yhxdu.woff?t=1630033759944") format("woff"), url("//at.alicdn.com/t/font_1031158_u69w8yhxdu.ttf?t=1630033759944") format("truetype"); }
</style></defs><path d="M751.183701 887.466667c0 8.635733 0.5632 25.634133 0 34.133333h-51.2c0.648533-8.482133 0-25.4976 0-34.133333 0-183.808-140.458667-324.266667-324.266666-324.266667-183.790933 0-324.266667 140.458667-324.266667 324.266667 0 8.635733-0.648533 25.6512 0 34.133333h-51.2c-0.5632-8.4992 0-25.4976 0-34.133333 0-170.973867 103.2704-307.165867 257.706667-356.898134-67.3792-40.209067-112.64-113.6128-112.64-197.768533 0-127.249067 103.150933-230.4 230.4-230.4s230.4 103.150933 230.4 230.4c0 84.155733-45.2608 157.559467-112.64 197.768533 154.436267 49.732267 257.706667 185.924267 257.706666 356.898134z m-196.266666-554.666667c0-98.9696-80.2304-179.2-179.2-179.2s-179.2 80.2304-179.2 179.2S276.747435 512 375.717035 512s179.2-80.2304 179.2-179.2z" fill="#1296db" p-id="10149"></path><path d="M973.050368 836.266667V187.733333a34.133333 34.133333 0 0 0-34.133333-34.133333h-358.4V102.4h375.466666a68.266667 68.266667 0 0 1 68.266667 68.266667v665.6h-51.2z m-68.266667-443.733334h-238.933333v-51.2h238.933333v51.2z m0 187.733334h-238.933333v-51.2h238.933333v51.2z" fill="#1296db" p-id="10150"></path></svg>