<?xml version="1.0" standalone="no"?><!DOCTYPE svg PUBLIC "-//W3C//DTD SVG 1.1//EN" "http://www.w3.org/Graphics/SVG/1.1/DTD/svg11.dtd"><svg t="1661391397515" class="icon" viewBox="0 0 1024 1024" version="1.1" xmlns="http://www.w3.org/2000/svg" p-id="11993" xmlns:xlink="http://www.w3.org/1999/xlink" width="48" height="48"><defs><style type="text/css">@font-face { font-family: feedback-iconfont; src: url("//at.alicdn.com/t/font_1031158_u69w8yhxdu.woff2?t=1630033759944") format("woff2"), url("//at.alicdn.com/t/font_1031158_u69w8yhxdu.woff?t=1630033759944") format("woff"), url("//at.alicdn.com/t/font_1031158_u69w8yhxdu.ttf?t=1630033759944") format("truetype"); }
</style></defs><path d="M885.84 919.75H134.43c-40.52 0-73.49-32.97-73.49-73.49V273.39c0-40.52 32.97-73.49 73.49-73.49h751.41c40.52 0 73.49 32.97 73.49 73.49v572.88c0 40.51-32.96 73.48-73.49 73.48zM134.43 248.89c-13.51 0-24.5 10.99-24.5 24.5v572.88c0 13.51 10.99 24.5 24.5 24.5h751.41c13.51 0 24.5-10.99 24.5-24.5V273.39c0-13.51-10.99-24.5-24.5-24.5H134.43z" p-id="11994" fill="#1485ee"></path><path d="M303.05 102.69h48.99v238.05h-48.99zM668.24 102.69h48.99v238.05h-48.99z" p-id="11995" fill="#1485ee"></path><path d="M441.9 726.29L273.15 578.24l32.31-36.83L445.1 663.92l273.66-194.37 28.37 39.94z" p-id="11996" fill="#1485ee"></path></svg>